<svg width="900" height="620" viewBox="0 0 900 620" fill="none" xmlns="http://www.w3.org/2000/svg" role="img" aria-labelledby="title desc">
  <title id="title">Gardien competent</title>
  <desc id="desc">Illustration d'un gardien competent avec un bouclier protecteur et deux enfants.</desc>
  <defs>
    <radialGradient id="glow" cx="0" cy="0" r="1" gradientUnits="userSpaceOnUse" gradientTransform="translate(660 108) rotate(135) scale(620 430)">
      <stop stop-color="#F9B66A" stop-opacity=".72"/>
      <stop offset=".48" stop-color="#7366CC" stop-opacity=".2"/>
      <stop offset="1" stop-color="#100C2A"/>
    </radialGradient>
    <linearGradient id="card" x1="90" y1="84" x2="825" y2="555" gradientUnits="userSpaceOnUse">
      <stop stop-color="#FEFBFF"/>
      <stop offset="1" stop-color="#EEE9FF"/>
    </linearGradient>
    <linearGradient id="mint" x1="256" y1="189" x2="549" y2="462" gradientUnits="userSpaceOnUse">
      <stop stop-color="#7ED8C7"/>
      <stop offset="1" stop-color="#2F8D81"/>
    </linearGradient>
    <filter id="shadow" x="42" y="48" width="814" height="548" filterUnits="userSpaceOnUse" color-interpolation-filters="sRGB">
      <feDropShadow dx="0" dy="24" stdDeviation="24" flood-color="#130E31" flood-opacity=".26"/>
    </filter>
  </defs>
  <rect width="900" height="620" rx="54" fill="#130E31"/>
  <rect width="900" height="620" rx="54" fill="url(#glow)"/>
  <circle cx="682" cy="118" r="22" fill="#F7B36C"/>
  <circle cx="742" cy="170" r="9" fill="#F8F1FF" opacity=".7"/>
  <circle cx="189" cy="504" r="12" fill="#62BEAB" opacity=".75"/>
  <g filter="url(#shadow)">
    <rect x="72" y="74" width="756" height="472" rx="42" fill="url(#card)"/>
  </g>
  <path d="M450 144C515 184 584 190 641 196V282C641 379 584 449 450 500C316 449 259 379 259 282V196C316 190 385 184 450 144Z" fill="#E9FFF9" stroke="#B4E8DE" stroke-width="10"/>
  <path d="M450 178C501 210 555 216 600 220V285C600 357 556 411 450 454C344 411 300 357 300 285V220C345 216 399 210 450 178Z" fill="url(#mint)"/>
  <path d="M389 311L431 353L515 264" stroke="#FFFFFF" stroke-width="24" stroke-linecap="round" stroke-linejoin="round"/>
  <g transform="translate(145 222)">
    <circle cx="62" cy="58" r="42" fill="#F2B47D"/>
    <path d="M20 142C29 100 95 100 104 142V176H20V142Z" fill="#3567B7"/>
    <path d="M25 50C35 14 91 11 104 47C78 39 54 37 25 50Z" fill="#271E46"/>
    <circle cx="136" cy="78" r="30" fill="#F0A469"/>
    <path d="M102 161C109 130 160 130 167 161V183H102V161Z" fill="#7F59DB"/>
  </g>
  <g transform="translate(611 246)">
    <circle cx="58" cy="50" r="34" fill="#F0A469"/>
    <path d="M22 139C29 104 87 104 94 139V168H22V139Z" fill="#F17D55"/>
    <path d="M25 45C40 19 76 18 90 47C68 41 48 39 25 45Z" fill="#271E46"/>
  </g>
  <rect x="124" y="104" width="282" height="68" rx="34" fill="#FFFFFF" stroke="#DCD6EF"/>
  <circle cx="158" cy="138" r="22" fill="#62BEAB"/>
  <path d="M148 138L156 146L170 130" stroke="white" stroke-width="6" stroke-linecap="round" stroke-linejoin="round"/>
  <text x="196" y="131" fill="#18133C" font-family="Outfit, Arial, sans-serif" font-size="25" font-weight="800">Gardien</text>
  <text x="196" y="158" fill="#4E466C" font-family="Outfit, Arial, sans-serif" font-size="22" font-weight="700">competent</text>
</svg>
